<?xml version="1.0" encoding="utf-8"?>
<!-- Generator: Adobe Illustrator 16.0.0, SVG Export Plug-In . SVG Version: 6.00 Build 0)  -->
<!DOCTYPE svg PUBLIC "-//W3C//DTD SVG 1.1//EN" "http://www.w3.org/Graphics/SVG/1.1/DTD/svg11.dtd">
<svg version="1.1" id="图层_1" xmlns="http://www.w3.org/2000/svg" xmlns:xlink="http://www.w3.org/1999/xlink" x="0px" y="0px"
	 width="207px" height="123px" viewBox="0 0 207 123" enable-background="new 0 0 207 123" xml:space="preserve">
<g>
	<polygon fill="#94252A" points="159.229,36.28 174.793,19.382 206.868,19.382 206.868,51.457 180.668,56.858 159.229,56.858 	"/>
	<rect x="174.793" y="19.382" fill="#E02622" width="32.065" height="32.064"/>
</g>
<g>
	<polygon fill="#94252A" points="139.233,35.819 139.233,21.991 132.987,-0.019 116.036,-0.019 116.036,25.719 129.767,35.819 	"/>
	<rect x="116.036" y="-0.019" fill="#E02622" width="16.943" height="25.731"/>
</g>
<g>
	<polygon fill="#94252A" points="160.367,102.841 157.345,91.891 142.06,91.891 140.334,102.841 140.334,122.872 160.367,122.872 	
		"/>
	<rect x="140.33" y="102.833" fill="#E02622" width="20.042" height="20.039"/>
</g>
<g>
	<polygon fill="#94252A" points="122.568,77.311 89.975,85.615 89.975,105.649 110.008,105.649 130.851,89.114 130.851,77.311 	"/>
	<rect x="89.975" y="85.615" fill="#E02622" width="20.041" height="20.042"/>
</g>
<g>
	<path fill="#94252A" d="M165.558,78.557l18.245,20.542l12.547-22.162l-26.396-5.856C165.637,70.121,162.623,75.253,165.558,78.557z
		"/>
	<circle fill="#E02622" cx="193.232" cy="89.794" r="13.228"/>
</g>
<g>
	<g>
		<path fill="#3E3A39" d="M22.03,81.502c-0.891,0-1.655,0.497-2.062,1.223l-6.937,16.771l-6.756-16.74
			c-0.402-0.743-1.177-1.253-2.08-1.253H0l10.534,24.155h3.927c0.797,0,1.481-0.466,1.807-1.138l9.614-23.018H22.03z"/>
	</g>
	<path fill="#3E3A39" d="M60.725,85.67h8.391c1.408-0.069,2.53-1.229,2.53-2.653v-1.502H60.725c-3.876,0-6.742,1.018-8.599,3.056
		c-1.855,2.035-2.783,5.183-2.783,9.442c0,2.199,0.309,4.091,0.927,5.675c0.62,1.582,1.546,2.863,2.784,3.851
		c0.94,0.756,1.951,1.297,3.03,1.625c1.079,0.328,2.625,0.494,4.64,0.494h8.262c1.469,0,2.659-1.191,2.659-2.66v-9.302
		c0-1.246-0.964-2.259-2.185-2.355l-9.821-0.006v4.271h6.8v5.683h-5.715c-2.004,0-3.46-0.59-4.37-1.773
		c-0.908-1.182-1.362-3.092-1.362-5.731c0-2.825,0.457-4.883,1.372-6.175C57.279,86.315,58.732,85.67,60.725,85.67z"/>
	<path fill="#3E3A39" d="M38.553,85.637h5.688c1.448,0,2.624-1.159,2.656-2.6v-1.522h-8.441c-3.887,0-6.756,1.015-8.606,3.045
		c-1.85,2.033-2.775,5.183-2.775,9.453c0,2.199,0.309,4.091,0.927,5.675c0.62,1.582,1.547,2.863,2.784,3.851
		c0.952,0.766,1.971,1.312,3.055,1.633c1.085,0.325,2.573,0.486,4.467,0.486h5.931c1.468,0,2.659-1.191,2.659-2.66v-1.546h-8.343
		c-2.179,0-3.712-0.541-4.598-1.625s-1.331-2.95-1.331-5.601c0-3.056,0.463-5.249,1.389-6.585
		C34.937,86.306,36.451,85.637,38.553,85.637z"/>
</g>
<g>
	<path fill="#3E3A39" d="M84.624,45.216v-1.271h-4.407v1.271H67.381v2.31v0.233v16.215v0.317v2.225h12.835v2.58h4.407v-2.58h10.326
		l0,0c1.388-0.005,2.51-1.13,2.51-2.52v-0.022V47.758v-0.233v-2.31H84.624z M80.216,63.974h-8.429V47.758h8.429V63.974z
		 M93.053,63.974h-8.429V47.758h8.429V63.974z"/>
	<g>
		<path fill="#3E3A39" d="M58.559,51.473h-1.598h-16.13h-1.604v0.002c-1.387,0.005-2.51,1.13-2.51,2.52v9.997h4.114V53.984h16.13
			v10.007h4.115V53.966C61.062,52.587,59.941,51.473,58.559,51.473z"/>
		<path fill="#3E3A39" d="M59.917,51.175h1.161h2.954v-2.44v-0.01h-0.001c-0.005-1.356-1.083-2.45-2.428-2.499h-2.219l0.533-2.515
			h-4.456l-0.533,2.515h-0.895v0.002h-3.009v-2.522H46.91v2.522h-3.149h-0.275h-0.702l-0.534-2.517h-4.456l0.534,2.517h-0.534
			h-1.639c-1.371,0.026-2.476,1.138-2.476,2.515v2.433h3.038h1.077v-2.438h5.691h0.275h3.149h4.115h3.14v-0.003h0.232l-0.001,0.003
			h4.455l0.001-0.003h1.065V51.175z"/>
		<path fill="#3E3A39" d="M53.596,66.585v-6.198h-3.55c0.615-2.212,0.483-3.952,0.483-3.952h-3.991v0.39
			c0.001,0.043,0,0.089,0,0.138v0.177h-0.003c-0.037,1.41-0.43,4.627-3.081,6.854c-1.762,1.481-4.09,2.291-6.059,2.422l-1.575,0.072
			l-1.791,0.022v2.47c1.813,0.192,8.41,0.533,12.313-2.731c1.542-1.289,2.519-2.804,3.139-4.252v4.588h0.001
			c0.005,1.389,1.13,2.511,2.518,2.511h0.532h1.063h10.436v-2.511H53.596z"/>
	</g>
	<g>
		<rect x="0.01" y="54.256" fill="#3E3A39" width="3.226" height="14.768"/>
		<path fill="#3E3A39" d="M6.591,49.476H0.007v2.51h4.99L5.01,69.024h4.115L9.111,52.672v-0.687H9.11
			C9.105,50.599,7.98,49.476,6.591,49.476z"/>
		<path fill="#3E3A39" d="M25.644,66.511v-6.18h4.115V46.49h0.002l0,0H29.76c-0.005-1.384-1.126-2.507-2.511-2.509H15.008v-0.003
			h-4.115v16.354h4.115V46.49h10.636v11.314h-3.816c0-2.082,0-8.331,0-8.331h-4.003c0,0,0,5.026,0,7.564
			c0,0-0.024,1.269-0.363,2.392c-0.362,1.192-1.002,2.281-1.116,2.494c-2.45,4.57-6.902,7.099-6.902,7.099h5.89
			c0,0,4.235-3.052,6.197-9.431v6.92h0.001c0.005,1.388,1.13,2.511,2.519,2.511h1.594h4.712v-2.511H25.644z"/>
		<path fill="#3E3A39" d="M6.591,43.98H0v3.224h9.111V46.49H9.11C9.105,45.103,7.98,43.98,6.591,43.98z"/>
	</g>
	<g>
		<polygon fill="#3E3A39" points="106.323,62.264 106.323,64.809 122.832,64.809 125.326,64.809 125.376,64.809 125.376,59.998 
			122.832,59.998 122.832,62.264 118.028,62.264 118.028,57.678 124.775,57.678 124.775,55.133 118.028,55.133 118.028,50.547 
			124.775,50.547 124.775,48.002 106.874,48.002 106.874,50.547 113.621,50.547 113.621,55.133 106.874,55.133 106.874,57.678 
			113.621,57.678 113.621,62.264 		"/>
		<path fill="#3E3A39" d="M126.7,43.944h-21.72h-4.17v2.545v20.026v1.012v1.532h27.532l0,0c1.387-0.005,2.509-1.13,2.509-2.518
			V43.944H126.7z M126.7,66.516h-21.72V46.49h21.72V66.516z"/>
	</g>
</g>
</svg>
