<?xml version="1.0" encoding="UTF-8" standalone="no"?>
<svg width="123px" height="74px" viewBox="0 0 123 74" version="1.1" xmlns="http://www.w3.org/2000/svg" xmlns:xlink="http://www.w3.org/1999/xlink">
    <!-- Generator: Sketch 39.1 (31720) - http://www.bohemiancoding.com/sketch -->
    <title>Page 1</title>
    <desc>Created with Sketch.</desc>
    <defs>
        <polygon id="path-1" points="0 73.7871747 122.864645 73.7871747 122.864645 0.166021143 0 0.166021143"></polygon>
    </defs>
    <g id="Page-1" stroke="none" stroke-width="1" fill="none" fill-rule="evenodd">
        <g id="登录" transform="translate(-659.000000, -253.000000)">
            <g id="Page-1" transform="translate(659.000000, 253.000000)">
                <polygon id="Fill-1" fill="#FFFFFF" points="122.857726 11.8984848 103.702947 11.8984848 94.4049161 22.0208187 94.4049161 34.3490587 107.211742 34.3490587 122.86459 31.1139866 122.86459 11.8984848"></polygon>
                <polygon id="Fill-2" fill="#FFFFFF" points="68.6016301 0.275270214 68.6016301 15.6904572 68.6016301 15.6940365 76.8039181 21.7451355 82.4591725 21.7451355 82.4591725 13.4608731 78.7288132 0.275270214"></polygon>
                <polygon id="Fill-3" fill="#FFFFFF" points="84.1475672 55.3363062 83.1179913 61.8904245 83.1152458 61.8904245 83.1152458 73.8965339 83.1171676 73.8965339 95.0855069 73.8965339 95.0874288 73.8965339 95.0874288 61.8904245 95.0841342 61.8904245 93.2789444 55.3363062"></polygon>
                <polygon id="Fill-4" fill="#FFFFFF" points="53.0327679 51.5765193 53.0327679 63.5779482 53.0327679 63.5823534 65.0046763 63.5823534 65.0046763 63.5746443 77.4518371 53.6733966 77.4518371 46.6011162 72.503558 46.6011162"></polygon>
                <g id="Group-34" transform="translate(0.000000, 0.109304)">
                    <path d="M116.57951,46.2694593 L116.580333,46.2680827 L116.39501,46.2267839 C116.356572,46.2185242 116.318684,46.2091631 116.280246,46.2011787 L100.812173,42.759062 C98.2335656,42.1855595 96.4319451,45.2590156 98.1860679,47.2394303 L109.084472,59.543717 L109.090512,59.5329793 C110.992619,61.4641108 113.8337,62.3658011 116.648148,61.6543606 C120.880117,60.5852725 123.446644,56.2780839 122.380003,52.0344954 C121.638708,49.083559 119.336028,46.942079 116.57951,46.2694593 L116.57951,46.2694593 Z" id="Fill-5" fill="#FFFFFF"></path>
                    <mask id="mask-2" fill="white">
                        <use xlink:href="#path-1"></use>
                    </mask>
                    <g id="Clip-8"></g>
                    <path d="M48.3752411,35.0139417 L53.1730647,35.0139417 L53.1730647,25.7586071 L48.3752411,25.7586071 L48.3752411,35.0139417 Z M41.069096,35.0139417 L45.8666451,35.0139417 L45.8666451,25.7586071 L41.069096,25.7586071 L41.069096,35.0139417 Z M54.2531585,36.4651812 C55.0427746,36.462428 55.6822098,35.8198188 55.6822098,35.0274326 L55.6822098,35.0139417 L55.6822098,25.7586071 L55.6822098,25.625625 L55.6822098,24.3065416 L48.3755156,24.3065416 L48.3755156,23.5813348 L45.8666451,23.5813348 L45.8666451,24.3065416 L38.5605,24.3065416 L38.5605,25.625625 L38.5605,25.7586071 L38.5605,35.0139417 L38.5605,35.1956564 L38.5605,36.4657319 L45.8666451,36.4657319 L45.8666451,37.9373455 L48.3755156,37.9373455 L48.3755156,36.4657319 L54.2531585,36.4657319 L54.2531585,36.4651812 Z" id="Fill-7" fill="#FFFFFF" mask="url(#mask-2)"></path>
                    <path d="M34.9713984,35.024349 L34.9713984,29.3022637 C34.9634364,28.5153841 34.3253739,27.8791073 33.5385033,27.8791073 L32.6291819,27.8791073 L23.4478359,27.8791073 L22.5341217,27.8791073 L22.5341217,27.879658 C21.7450547,27.8829619 21.1056194,28.5250204 21.1056194,29.3174066 L21.1056194,35.024349 L23.4478359,35.024349 L23.4478359,29.3116248 L32.6291819,29.3116248 L32.6291819,35.024349 L34.9713984,35.024349 Z" id="Fill-9" fill="#FFFFFF" mask="url(#mask-2)"></path>
                    <path d="M35.2712933,24.8824945 L34.0086214,24.8824945 L34.3117286,23.4483252 L31.7759518,23.4483252 L31.4722955,24.8824945 L30.9629987,24.8824945 L30.9629987,24.8849725 L29.2500589,24.8849725 L29.2500589,23.4455719 L26.9078424,23.4455719 L26.9078424,24.8849725 L25.1152821,24.8849725 L24.9582375,24.8849725 L24.5584875,24.8849725 L24.2548313,23.4483252 L21.7182308,23.4483252 L22.0224362,24.8849725 L21.7182308,24.8849725 L20.7852978,24.8849725 C20.0055656,24.8990141 19.3762888,25.5352908 19.3762888,26.3207938 L19.3762888,27.7084332 L21.1054272,27.7084332 L21.7182308,27.7084332 L21.7182308,26.3174899 L24.9582375,26.3174899 L25.1152821,26.3174899 L26.9078424,26.3174899 L29.2500589,26.3174899 L31.0374027,26.3174899 L31.0374027,26.3155626 L31.1689138,26.3155626 L31.1683647,26.3174899 L33.7049652,26.3174899 L33.7049652,26.3155626 L34.3117286,26.3155626 L34.3117286,27.7084332 L34.9728536,27.7084332 L36.6539451,27.7084332 L36.6539451,26.3155626 L36.6539451,26.3103314 L36.653396,26.3103314 C36.6506504,25.5361168 36.0370232,24.9105777 35.2712933,24.8824945" id="Fill-10" fill="#FFFFFF" mask="url(#mask-2)"></path>
                    <path d="M30.7138138,32.9677242 L28.692825,32.9677242 C29.0431554,31.7048072 28.9679277,30.7114336 28.9679277,30.7114336 L26.6962714,30.7114336 L26.6962714,30.9336211 L26.6962714,31.0120888 L26.6962714,31.1139591 L26.6943496,31.1139591 C26.6732089,31.9176336 26.4494478,33.7543285 24.9407759,35.0263313 C23.9375571,35.8718553 22.6122871,36.3335757 21.4918339,36.4081889 L20.5954165,36.4492124 L19.5762737,36.462428 L19.5762737,37.8720934 C20.6083205,37.9819482 24.3628406,38.1766032 26.5848027,36.313477 C27.4617268,35.5775325 28.0182469,34.7130112 28.3715973,33.8862093 L28.3715973,36.5048281 L28.3721464,36.5048281 C28.3754411,37.2963882 29.0157,37.9373455 29.8058652,37.9373455 L30.1086978,37.9373455 L30.7138138,37.9373455 L36.6540549,37.9373455 L36.6540549,36.5048281 L30.7138138,36.5048281 L30.7138138,32.9677242 Z" id="Fill-11" fill="#FFFFFF" mask="url(#mask-2)"></path>
                    <polygon id="Fill-12" fill="#FFFFFF" mask="url(#mask-2)" points="0.210582589 37.8968727 2.04707143 37.8968727 2.04707143 29.4672386 0.210582589 29.4672386"></polygon>
                    <path d="M5.39168304,28.1711173 L5.39113393,28.1711173 C5.38838839,27.3792818 4.74758036,26.7385999 3.95741518,26.7385999 L0.209209821,26.7385999 L0.209209821,28.1711173 L3.04946652,28.1711173 L3.05770312,37.8967075 L5.39991964,37.8967075 L5.39168304,28.5637312 L5.39168304,28.1711173 Z" id="Fill-13" fill="#FFFFFF" mask="url(#mask-2)"></path>
                    <path d="M13.8949366,37.8953309 L14.8026107,37.8953309 L17.4852737,37.8953309 L17.4852737,36.4622628 L14.8026107,36.4622628 L14.8026107,32.935346 L17.1448272,32.935346 L17.1448272,25.0337858 L17.1459254,25.0337858 C17.1426308,24.2433269 16.5045683,23.6037463 15.716325,23.6012684 L8.74870446,23.6012684 L8.74870446,23.6007177 L6.40593884,23.6007177 L6.40593884,32.935346 L8.74870446,32.935346 L8.74870446,25.0337858 L14.8026107,25.0337858 L14.8026107,31.4920908 L12.6306174,31.4920908 L12.6306174,26.7374986 L10.3518228,26.7374986 L10.3518228,31.055425 C10.3518228,31.055425 10.3383696,31.7792551 10.1448094,32.4193864 C9.93916875,33.1008164 9.5740125,33.7225009 9.50949241,33.8433687 C8.11530938,36.453177 5.5806308,37.8953309 5.5806308,37.8953309 L8.93320446,37.8953309 C8.93320446,37.8953309 11.3440594,36.1544491 12.4606688,32.5118957 L12.4606688,36.4622628 L12.4609433,36.4622628 C12.4645125,37.2540983 13.1047714,37.8953309 13.8949366,37.8953309" id="Fill-14" fill="#FFFFFF" mask="url(#mask-2)"></path>
                    <path d="M5.39168304,25.0337858 L5.39113393,25.0337858 C5.38838839,24.2419503 4.74758036,23.6012684 3.95741518,23.6012684 L0.205366071,23.6012684 L0.205366071,25.4423685 L5.39168304,25.4423685 L5.39168304,25.0337858 Z" id="Fill-15" fill="#FFFFFF" mask="url(#mask-2)"></path>
                    <polygon id="Fill-16" fill="#FFFFFF" mask="url(#mask-2)" points="71.5439933 35.4905573 71.5725469 35.4905573 71.5725469 32.7441876 70.1245513 32.7441876 70.1245513 34.0384918 67.3899978 34.0384918 67.3899978 31.4201484 71.2304531 31.4201484 71.2304531 29.9680828 67.3899978 29.9680828 67.3899978 27.3502901 71.2304531 27.3502901 71.2304531 25.8976739 61.0409464 25.8976739 61.0409464 27.3502901 64.8814018 27.3502901 64.8814018 29.9680828 61.0409464 29.9680828 61.0409464 31.4201484 64.8814018 31.4201484 64.8814018 34.0384918 60.7276808 34.0384918 60.7276808 35.4905573 70.1245513 35.4905573"></polygon>
                    <path d="M59.9627746,36.4657319 L72.3259219,36.4657319 L72.3259219,25.033951 L59.9627746,25.033951 L59.9627746,36.4657319 Z M73.2602277,37.9175221 C74.0501183,37.9142182 74.689279,37.2721596 74.689279,36.4797735 L74.689279,23.5813348 L72.3259219,23.5813348 L59.9627746,23.5813348 L57.5892589,23.5813348 L57.5892589,25.0336757 L57.5892589,36.4657319 L57.5892589,37.0428137 L57.5892589,37.9180727 L73.2602277,37.9180727 L73.2602277,37.9175221 Z" id="Fill-17" fill="#FFFFFF" mask="url(#mask-2)"></path>
                    <path d="M73.6007565,42.1934613 C73.4593614,42.3046927 73.2430132,42.3605838 72.9517118,42.3605838 L71.776348,42.3605838 L71.776348,41.0035055 L72.8929574,41.0035055 C73.22956,41.0035055 73.4667743,41.0549913 73.6054239,41.1582383 C73.7435243,41.2612099 73.8121627,41.4357661 73.8121627,41.6819069 C73.8121627,41.9115282 73.741877,42.0816793 73.6007565,42.1934613 M74.2519975,40.4123821 C74.1276248,40.3330884 73.9604217,40.2755454 73.7501136,40.2386518 C73.5398056,40.2025842 73.2589373,40.1841374 72.9055868,40.1841374 L70.8129395,40.1841374 L70.8129395,44.7809683 L71.2728167,44.7809683 C71.5421538,44.7809683 71.7615221,44.5697938 71.776348,44.3032789 L71.776348,43.173344 L72.9459462,43.173344 C73.347069,43.173344 73.6452342,43.151318 73.8393435,43.1064399 C74.0337275,43.0612866 74.2053234,42.9858475 74.3552297,42.8795719 C74.5342386,42.7504444 74.6671225,42.5874518 74.7544306,42.3903189 C74.8417386,42.1934613 74.8851181,41.9569569 74.8851181,41.6819069 C74.8851181,41.4005245 74.8315801,41.1519058 74.7250533,40.9360508 C74.6174283,40.7201957 74.4598346,40.5456395 74.2519975,40.4123821" id="Fill-18" fill="#FFFFFF" mask="url(#mask-2)"></path>
                    <path d="M54.4757665,44.2748103 L54.4757665,42.5033674 C54.4757665,42.2660371 54.2926393,42.0735847 54.0606415,42.0545872 L52.1961482,42.0543119 L52.1961482,42.8670721 L53.4873737,42.8670721 L53.4873737,43.9488252 L52.4020634,43.9488252 C52.0218067,43.9488252 51.7450567,43.8364924 51.5726371,43.6115517 C51.4002174,43.3863356 51.3140076,43.0226309 51.3140076,42.519887 C51.3140076,41.9821767 51.4002174,41.5901135 51.5742844,41.3439727 C51.7478022,41.0983826 52.0237286,40.9750368 52.4020634,40.9750368 L53.9950232,40.9750368 C54.2627129,40.9623719 54.4757665,40.741561 54.4757665,40.4703656 L54.4757665,40.1840273 L52.4020634,40.1840273 C51.6659853,40.1840273 51.1220946,40.3778563 50.7695679,40.7657896 C50.4173156,41.1534476 50.2413268,41.7531061 50.2413268,42.5636637 C50.2413268,42.9829841 50.3000812,43.3431095 50.4173156,43.6443154 C50.5348246,43.9455213 50.7108134,44.1897348 50.9458312,44.3772313 C51.1245656,44.5215017 51.3164786,44.6244734 51.5212955,44.6872476 C51.7263871,44.7494711 52.0193357,44.7811335 52.4020634,44.7811335 L53.9711371,44.7811335 C54.2495344,44.7811335 54.4757665,44.5542655 54.4757665,44.2748103" id="Fill-19" fill="#FFFFFF" mask="url(#mask-2)"></path>
                    <path d="M3.79155737,40.4147224 L2.47424933,43.6076696 L1.19126049,40.4205042 C1.11520915,40.278987 0.968048438,40.1817972 0.796452455,40.1817972 L-2.74553571e-05,40.1817972 L1.99982076,44.7811059 L2.74578281,44.7811059 C2.89706183,44.7811059 3.02692567,44.6919006 3.08870022,44.564425 L4.91393237,40.1817972 L4.18307076,40.1817972 C4.01367121,40.1817972 3.86870692,40.2765091 3.79155737,40.4147224" id="Fill-20" fill="#FFFFFF" mask="url(#mask-2)"></path>
                    <path d="M15.7196746,42.9361237 C15.7196746,43.3672831 15.642525,43.667663 15.4893241,43.8364374 C15.335025,44.0054871 15.0689826,44.0897366 14.6909223,44.0897366 C14.3123129,44.0897366 14.0457214,44.0049365 13.8911478,43.8347854 C13.7362996,43.6651851 13.6586009,43.3653558 13.6586009,42.9361237 L13.6586009,40.1842476 L12.6982125,40.1842476 L12.6982125,42.9606277 C12.6982125,43.3006544 12.7190786,43.5646913 12.7605362,43.7521878 C12.8019938,43.9399597 12.8684357,44.0886353 12.9601366,44.1995914 C13.1432638,44.4159971 13.3744379,44.5754104 13.6539335,44.6775561 C13.933429,44.7797018 14.279092,44.8309123 14.6909223,44.8309123 C15.1024781,44.8309123 15.4467683,44.7797018 15.7246165,44.6775561 C16.0021902,44.5754104 16.2322661,44.4159971 16.4148442,44.1995914 C16.508467,44.0867081 16.5768308,43.9333519 16.6193866,43.7395229 C16.6616679,43.5456939 16.6833576,43.2860622 16.6833576,42.9606277 L16.6833576,40.1842476 L15.7196746,40.1842476 L15.7196746,42.9361237 Z" id="Fill-21" fill="#FFFFFF" mask="url(#mask-2)"></path>
                    <path d="M18.8786605,42.866962 L19.5488458,41.0974464 L20.2440154,42.866962 L18.8786605,42.866962 Z M19.0749663,40.1841925 L17.1352453,44.7810234 L18.1579574,44.7810234 L18.5664931,43.68633 L20.5592029,43.68633 L20.9800935,44.7810234 L22.0527743,44.7810234 L20.0974038,40.1841925 L19.0749663,40.1841925 Z" id="Fill-22" fill="#FFFFFF" mask="url(#mask-2)"></path>
                    <path d="M45.1447614,42.866962 L45.8154958,41.0974464 L46.5106654,42.866962 L45.1447614,42.866962 Z M45.3410672,40.1841925 L43.4018953,44.7810234 L44.4243328,44.7810234 L44.8328685,43.68633 L46.8255783,43.68633 L47.2461944,44.7810234 L48.3191498,44.7810234 L46.3640538,40.1841925 L45.3410672,40.1841925 Z" id="Fill-23" fill="#FFFFFF" mask="url(#mask-2)"></path>
                    <path d="M63.8792263,42.4825804 C63.8792263,43.0266231 63.7779161,43.4296993 63.5755701,43.6912584 C63.3729496,43.9528174 63.0618804,44.0833216 62.6426371,44.0833216 C62.2173536,44.0833216 61.9054607,43.9519914 61.7066839,43.6879545 C61.5084562,43.4244682 61.409617,43.0090023 61.409617,42.4421076 C61.409617,41.9184389 61.5120254,41.5277523 61.7162933,41.2689466 C61.9208357,41.0106914 62.2294339,40.8812886 62.6426371,40.8812886 C63.0618804,40.8812886 63.3729496,41.0117928 63.5755701,41.2725258 C63.7779161,41.5329835 63.8792263,41.936335 63.8792263,42.4825804 M60.9214607,40.6720414 C60.543675,41.0577721 60.3558804,41.6458669 60.3558804,42.4357751 C60.3558804,43.2760678 60.5403804,43.8927965 60.910204,44.2867869 C61.2800277,44.6810527 61.8576884,44.877635 62.6426371,44.877635 C63.4196237,44.877635 63.9948134,44.6818787 64.3676571,44.2898155 C64.7402263,43.8977523 64.9269228,43.2958913 64.9269228,42.4825804 C64.9269228,41.6692695 64.7402263,41.0679591 64.3676571,40.6783738 C63.9948134,40.2885132 63.4196237,40.0933076 62.6426371,40.0933076 C61.8719652,40.0933076 61.2978737,40.2860353 60.9214607,40.6720414" id="Fill-24" fill="#FFFFFF" mask="url(#mask-2)"></path>
                    <path d="M65.877592,40.1841374 L65.877592,42.9607929 C65.877592,43.3005443 65.8981835,43.5645812 65.9399156,43.7520777 C65.9813732,43.9398496 66.0478152,44.0888005 66.1392415,44.1994813 C66.3220942,44.415887 66.5535429,44.5755756 66.8330384,44.6777213 C67.1122594,44.7795917 67.4584714,44.8308022 67.8697527,44.8308022 C68.281583,44.8308022 68.6261478,44.7795917 68.9037214,44.6777213 C69.1810205,44.5755756 69.4116455,44.415887 69.5942237,44.1994813 C69.6878464,44.0868733 69.7559357,43.9335171 69.7987661,43.7396881 C69.8410473,43.5458591 69.8621879,43.2862273 69.8621879,42.9607929 L69.8621879,40.1841374 L68.899054,40.1841374 L68.899054,42.9360136 C68.899054,43.367173 68.8219045,43.6675529 68.668429,43.8363273 C68.5144045,44.0056523 68.2480875,44.0896265 67.8697527,44.0896265 C67.4916924,44.0896265 67.2251009,44.0051016 67.0699781,43.8349506 C66.9151299,43.6650749 66.8379804,43.365521 66.8379804,42.9360136 L66.8379804,40.1841374 L65.877592,40.1841374 Z" id="Fill-25" fill="#FFFFFF" mask="url(#mask-2)"></path>
                    <path d="M23.9795364,43.9489353 C23.8463779,43.902956 23.7340855,43.8261402 23.6429337,43.7179374 C23.5847283,43.6513087 23.5435453,43.5626539 23.5193846,43.4533498 C23.495773,43.3440457 23.4839672,43.1546219 23.4839672,42.8859044 L23.4839672,40.1841374 L22.5200096,40.1841374 L22.5200096,42.9172915 C22.5200096,43.2798949 22.5515833,43.5612773 22.6141815,43.7614388 C22.6762306,43.9616003 22.7833065,44.140837 22.93486,44.2988737 C23.0993176,44.4764585 23.2851904,44.6011809 23.4935766,44.6733161 C23.7014136,44.7446253 24.0190721,44.7809683 24.4471011,44.7809683 L25.1614895,44.7809683 C25.4407105,44.7809683 25.6663935,44.5543756 25.6663935,44.2749204 L25.6663935,44.0177666 L24.5313891,44.0177666 C24.2969203,44.0177666 24.1124203,43.9949146 23.9795364,43.9489353" id="Fill-26" fill="#FFFFFF" mask="url(#mask-2)"></path>
                    <path d="M28.095369,40.7642753 C27.7444895,41.1511073 27.5685007,41.7504905 27.5685007,42.5638013 C27.5685007,42.9828464 27.6272551,43.3432472 27.7450386,43.6444531 C27.8625475,43.9456589 28.0385364,44.1898724 28.2732797,44.377369 C28.4542105,44.5232914 28.6474962,44.6273643 28.8531368,44.6887618 C29.059052,44.7501594 29.3415676,44.7809958 29.7012328,44.7809958 L30.8274516,44.7809958 C31.106398,44.7809958 31.3323556,44.5544031 31.3323556,44.274948 L31.3323556,43.9803499 L29.7481815,43.9803499 C29.3344292,43.9803499 29.0431279,43.8768276 28.8756502,43.6708843 C28.7067998,43.4646657 28.6222373,43.1086701 28.6222373,42.6045495 C28.6222373,42.0227872 28.7106435,41.6051187 28.8860833,41.3507182 C29.0620721,41.0960423 29.3489806,40.968842 29.7481815,40.968842 L30.8280007,40.968842 C31.1028288,40.968842 31.3260408,40.7483065 31.3323556,40.4743578 L31.3323556,40.184165 L29.7297864,40.184165 C28.9915118,40.184165 28.4467975,40.3774433 28.095369,40.7642753" id="Fill-27" fill="#FFFFFF" mask="url(#mask-2)"></path>
                    <path d="M35.0273799,42.0479519 L33.2595295,42.0479519 L33.2595295,40.1839998 L32.2955719,40.1839998 L32.2955719,44.7811059 L32.7546254,44.7811059 C33.0305518,44.7811059 33.2540384,44.5591938 33.2595295,44.2841438 L33.2595295,42.8607121 L35.0273799,42.8607121 L35.0273799,44.7811059 L35.4858844,44.7811059 C35.7645562,44.7811059 35.9905138,44.5542379 35.9905138,44.2747828 L35.9905138,40.1839998 L35.0273799,40.1839998 L35.0273799,42.0479519 Z" id="Fill-28" fill="#FFFFFF" mask="url(#mask-2)"></path>
                    <path d="M36.9409359,44.7811059 L37.443369,44.7811059 C37.7223154,44.7811059 37.9485475,44.5542379 37.9485475,44.2747828 L37.9485475,40.1839998 L36.9409359,40.1839998 L36.9409359,44.7811059 Z" id="Fill-29" fill="#FFFFFF" mask="url(#mask-2)"></path>
                    <path d="M58.2339931,42.0290921 C58.1090712,42.1166456 57.8869574,42.1606976 57.5668279,42.1606976 L56.3848748,42.1606976 L56.3848748,41.0035055 L57.5668279,41.0035055 C57.8932721,41.0035055 58.1173078,41.0467315 58.238935,41.1331837 C58.3602877,41.2196358 58.4209641,41.3680361 58.4209641,41.5789353 C58.4209641,41.7917617 58.358915,41.9415387 58.2339931,42.0290921 M59.1586895,42.4294151 C59.3179306,42.2061263 59.3972766,41.9184114 59.3972766,41.5665457 C59.3972766,41.0910589 59.2679618,40.7416711 59.0107051,40.5186576 C58.7526248,40.2959195 58.3473837,40.1841374 57.7947074,40.1841374 L55.4217408,40.1841374 L55.4217408,44.7809683 L55.8802453,44.7809683 C56.1589172,44.7809683 56.3848748,44.5543756 56.3848748,44.2749204 L56.3848748,42.9734578 L57.5198792,42.9734578 L58.5305109,44.7809683 L59.6152721,44.7809683 L58.4712074,42.8605745 C58.7704708,42.7964237 58.999723,42.6524286 59.1586895,42.4294151" id="Fill-30" fill="#FFFFFF" mask="url(#mask-2)"></path>
                    <path d="M10.2726415,42.1040907 L8.99706562,42.1040907 C8.79526875,42.1040907 8.64344062,42.0625166 8.5418558,41.9788177 C8.44027098,41.8956695 8.38892946,41.7703965 8.38892946,41.6035494 C8.38892946,41.3951281 8.44878214,41.2434239 8.5684875,41.1470601 C8.6879183,41.0515222 8.87543839,41.0036156 9.13104777,41.0036156 L11.0229964,41.0036156 C11.287117,40.9970078 11.5001705,40.7872099 11.5136237,40.523999 L11.5136237,40.1842476 L8.99075089,40.1842476 C8.43148527,40.1842476 8.02404777,40.2968556 7.76706562,40.5220717 C7.51008348,40.7467371 7.38186696,41.1032833 7.38186696,41.5917104 C7.38186696,42.0479244 7.50431786,42.3818939 7.74839598,42.5933438 C7.99219955,42.8050689 8.37904554,42.9107938 8.9067375,42.9107938 L10.0447621,42.9107938 C10.2943312,42.9107938 10.4703201,42.9515419 10.5735522,43.0327629 C10.6762353,43.1139839 10.7278513,43.2508205 10.7278513,43.4427222 C10.7278513,43.6280161 10.6718424,43.7609983 10.55955,43.8411179 C10.4472576,43.9215129 10.2539719,43.9614351 9.97969286,43.9614351 L7.56609241,43.9614351 L7.56609241,44.7810784 L10.1320701,44.7810784 C10.6852955,44.7810784 11.0905366,44.669847 11.3483424,44.4479348 C11.6061482,44.2260227 11.7349138,43.8782868 11.7349138,43.4050027 C11.7349138,42.938051 11.6231705,42.6043568 11.3999585,42.4041953 C11.1761973,42.2040338 10.800608,42.1040907 10.2726415,42.1040907" id="Fill-31" fill="#FFFFFF" mask="url(#mask-2)"></path>
                    <path d="M5.42062098,44.7811059 L5.92305402,44.7811059 C6.20200045,44.7811059 6.42768348,44.5542379 6.42768348,44.2747828 L6.42768348,40.1839998 L5.42062098,40.1839998 L5.42062098,44.7811059 Z" id="Fill-32" fill="#FFFFFF" mask="url(#mask-2)"></path>
                    <path d="M41.9917058,43.4862512 L40.1148576,40.1842751 L38.8955652,40.1842751 L38.8955652,44.7811059 L39.3370473,44.7811059 C39.6157192,44.7811059 39.8419513,44.5542379 39.8419513,44.2747828 L39.8419513,41.42847 L39.8405786,41.3037477 L39.8419513,41.3062256 L39.8419513,41.2960386 L39.8658375,41.348901 L41.8113241,44.7811059 L42.4255004,44.7811059 C42.7047214,44.7811059 42.9309536,44.5542379 42.9309536,44.2747828 L42.9309536,40.1842751 L41.9917058,40.1842751 L41.9917058,43.4862512 Z" id="Fill-33" fill="#FFFFFF" mask="url(#mask-2)"></path>
                </g>
            </g>
        </g>
    </g>
</svg>